<svg width="47" height="47" viewBox="0 0 47 47" fill="none" xmlns="http://www.w3.org/2000/svg">
<path fill-rule="evenodd" clip-rule="evenodd" d="M23.5 47C36.4787 47 47 36.4787 47 23.5C47 10.5213 36.4787 0 23.5 0C10.5213 0 0 10.5213 0 23.5C0 36.4787 10.5213 47 23.5 47ZM23.35 24.1689C21.9188 21.2364 18.0208 15.772 14.3967 13.0769H14.3966C11.7818 11.1323 7.54481 9.62768 7.54481 14.4155C7.54481 15.3716 8.09825 22.448 8.42286 23.5969C9.55101 27.591 13.6626 28.6097 17.32 27.9931C10.927 29.0707 9.30081 32.6409 12.813 36.2109C19.4835 42.991 22.4003 34.5101 23.1478 32.3366L23.1478 32.3365C23.2848 31.9381 23.349 31.7517 23.3499 31.9102C23.3508 31.7517 23.415 31.9381 23.552 32.3365L23.5523 32.3375C24.3006 34.5122 27.2175 42.9899 33.8868 36.2109C37.399 32.6409 35.7727 29.0709 29.3798 27.9931C33.0371 28.6097 37.1486 27.591 38.277 23.5969C38.6016 22.4481 39.155 15.3717 39.155 14.4155C39.155 9.62768 34.9182 11.1323 32.3033 13.0769C28.6791 15.7719 24.7813 21.2366 23.35 24.1689Z" fill="#CAFFEF" style="fill:#CAFFEF;fill:color(display-p3 0.7940 1.0000 0.9382);fill-opacity:1;"/>
</svg>
