<svg width="47" height="47" viewBox="0 0 47 47" fill="none" xmlns="http://www.w3.org/2000/svg">
<path fill-rule="evenodd" clip-rule="evenodd" d="M0 23.5C0 10.5213 10.5213 0 23.5 0C36.4787 0 47 10.5213 47 23.5C47 36.4787 36.4787 47 23.5 47C10.5213 47 0 36.4787 0 23.5ZM35.2103 14.474C34.8497 14.302 34.4467 14.206 34.0214 14.206H12.9789C12.5535 14.206 12.1504 14.3021 11.7897 14.4741L17.8297 20.3595L23.4999 25.8845L29.182 20.3479L35.2103 14.474ZM30.3316 23.9005L31.5439 22.7192L36.7944 17.6031V30.0292L33.8014 27.1909L33.7623 27.1538L30.3316 23.9005ZM12.122 32.9011C12.3919 32.989 12.6798 33.0365 12.9789 33.0365H34.0214C34.3428 33.0365 34.6514 32.9817 34.9385 32.8807L31.4454 29.5681L31.4245 29.5483L27.9332 26.2375L24.6763 29.4109C24.3372 29.7412 23.9206 29.8992 23.4991 29.889C23.0782 29.8988 22.6622 29.7407 22.3236 29.4109L19.1072 26.2769L15.6536 29.552L12.122 32.9011ZM16.7089 23.9398L15.4661 22.7288L10.206 17.6032V30.1065L13.3176 27.1558L16.7089 23.9398ZM34.0214 35.9921H12.9789C9.81916 35.9921 7.25 33.4229 7.25 30.2631V16.9789C7.25 13.8195 9.81951 11.25 12.9789 11.25H34.0214C37.1809 11.25 39.75 13.8196 39.75 16.9789V30.2631C39.75 33.4229 37.1809 35.9921 34.0214 35.9921Z" fill="#CAFFEF" style="fill:#CAFFEF;fill:color(display-p3 0.7940 1.0000 0.9382);fill-opacity:1;"/>
</svg>
