<svg width="47" height="47" viewBox="0 0 47 47" fill="none" xmlns="http://www.w3.org/2000/svg">
<path d="M47 24.6409C46.9757 24.9423 46.9491 25.2434 46.9271 25.5453C46.7023 28.6622 45.917 31.629 44.5077 34.4089C41.6117 40.1214 37.1688 44.0711 31.1918 46.2484C30.8886 46.3589 30.5792 46.3906 30.2674 46.33C29.7214 46.2238 29.3795 45.7841 29.3787 45.189C29.3775 44.2846 29.3881 43.3802 29.3928 42.4758C29.3991 41.2215 29.4101 39.9669 29.4085 38.7127C29.4073 37.5864 29.2663 36.4815 28.7317 35.4745C28.5033 35.0443 28.19 34.66 27.915 34.254C28.1394 34.2231 28.4077 34.1886 28.6757 34.149C30.3818 33.897 32.0394 33.4819 33.5736 32.6547C35.9115 31.3941 37.338 29.4121 38.0223 26.8577C38.4908 25.1095 38.6443 23.3232 38.4923 21.5211C38.3274 19.5637 37.5926 17.8337 36.3146 16.3497C36.1751 16.1877 36.1603 16.0633 36.2253 15.8632C36.7619 14.2117 36.7082 12.5522 36.2547 10.8931C36.1783 10.6138 36.0647 10.3452 35.9926 10.0651C35.935 9.84208 35.7952 9.76721 35.5947 9.78504C35.1286 9.82623 34.6535 9.83337 34.1999 9.93439C32.8858 10.2267 31.7049 10.8471 30.5592 11.5392C30.2177 11.7456 29.8906 11.9758 29.5503 12.1838C29.4821 12.2254 29.3756 12.2467 29.3004 12.2261C27.0455 11.6073 24.7499 11.3807 22.4201 11.4937C20.8781 11.5681 19.3592 11.8066 17.8688 12.219C17.7368 12.2555 17.6389 12.2404 17.5253 12.1643C16.2434 11.3071 14.9128 10.5433 13.4354 10.0794C12.8162 9.88487 12.1852 9.7573 11.5307 9.78385C11.325 9.79217 11.1981 9.85 11.1178 10.0762C10.4708 11.8997 10.2753 13.7498 10.8241 15.6291C10.9341 16.0067 10.9028 16.24 10.6498 16.5462C9.38856 18.0722 8.70861 19.8474 8.60481 21.8313C8.49162 23.9943 8.71566 26.1173 9.52526 28.1433C10.4907 30.559 12.2282 32.1884 14.5967 33.159C16.0158 33.7405 17.501 34.0432 19.0137 34.2314C19.0775 34.2393 19.141 34.2488 19.2139 34.2591C19.2044 34.2884 19.2044 34.3098 19.1939 34.3201C18.4027 35.0887 18.0043 36.0565 17.8246 37.1265C17.7846 37.3646 17.6918 37.4842 17.4724 37.5686C16.3789 37.9893 15.2638 38.2001 14.0997 37.9509C12.7605 37.6645 11.7958 36.8468 11.0791 35.7063C10.5695 34.8953 9.9847 34.162 9.18293 33.6276C8.46303 33.1479 7.67966 32.9379 6.81993 33.0794C6.59628 33.1162 6.3409 33.142 6.2563 33.401C6.17522 33.649 6.34717 33.8317 6.50737 33.9838C6.70125 34.168 6.90296 34.357 7.13288 34.4865C7.69612 34.8038 8.11991 35.2614 8.49083 35.7772C9.03331 36.5319 9.48883 37.3345 9.83939 38.2016C10.3756 39.5288 11.3838 40.3266 12.7194 40.7295C13.8318 41.0651 14.9692 41.0928 16.1137 40.9827C16.619 40.9339 17.1215 40.8575 17.6554 40.7897C17.6554 40.8626 17.6554 40.9383 17.6554 41.014C17.6624 42.3609 17.6503 43.7078 17.6828 45.0539C17.7094 46.1612 16.8148 46.5637 15.9872 46.2812C12.0391 44.9343 8.67727 42.6762 5.91045 39.526C3.35983 36.6222 1.62234 33.2778 0.692881 29.5072C0.324311 28.0117 0.103795 26.4937 0.0352512 24.953C0.0313344 24.8623 0.0121421 24.7724 0 24.6825C0 24.0882 0 23.494 0 22.8998C0.010967 22.8225 0.0289843 22.7456 0.0321177 22.6684C0.102228 20.9752 0.348203 19.3082 0.786884 17.6733C2.21338 12.3521 5.10515 8.02254 9.45985 4.71742C13.1029 1.95225 17.219 0.420321 21.7629 0.0713079C22.0547 0.0491232 22.3461 0.0237693 22.6375 0C23.2121 0 23.7863 0 24.3609 0C24.431 0.0110923 24.5007 0.0265424 24.5712 0.0320886C25.0847 0.0736849 25.5994 0.101416 26.1117 0.155689C28.5828 0.417151 30.947 1.08111 33.2078 2.11824C41.0382 5.71097 46.2946 13.3366 46.9291 22.0132C46.9506 22.3083 46.9765 22.6026 47 22.8978V24.6409Z" fill="#CAFFEF" style="fill:#CAFFEF;fill:color(display-p3 0.7940 1.0000 0.9382);fill-opacity:1;"/>
</svg>
